<svg width="572" height="81" viewBox="0 0 572 81" fill="none" xmlns="http://www.w3.org/2000/svg">
<path d="M565.78 67.0599C564.169 67.0786 562.617 66.4572 561.464 65.3322C560.311 64.2073 559.651 62.6707 559.63 61.0599C559.625 60.2562 559.779 59.4595 560.082 58.7152C560.386 57.9709 560.833 57.2937 561.398 56.7221C561.963 56.1506 562.635 55.6959 563.376 55.3841C564.116 55.0723 564.911 54.9095 565.715 54.9049C566.519 54.9003 567.315 55.054 568.06 55.3574C568.804 55.6607 569.481 56.1076 570.053 56.6726C570.624 57.2377 571.079 57.9098 571.391 58.6505C571.703 59.3913 571.865 60.1862 571.87 60.9899C571.857 62.5991 571.21 64.1385 570.071 65.2746C568.931 66.4107 567.389 67.0521 565.78 67.0599V67.0599Z" fill="black"/>
<path d="M522.57 18.8699C525.801 18.8172 529.01 19.4146 532.005 20.6266C535.001 21.8385 537.722 23.6403 540.008 25.9249C542.293 28.2094 544.096 30.9301 545.31 33.9252C546.523 36.9204 547.121 40.1288 547.07 43.3599C547.112 48.2623 545.693 53.0662 542.996 57.1599C540.298 61.2536 536.443 64.452 531.922 66.3477C527.401 68.2435 522.418 68.7509 517.607 67.8054C512.797 66.8598 508.376 64.5042 504.909 61.0382C501.442 57.5723 499.084 53.1529 498.137 48.3427C497.189 43.5325 497.694 38.5492 499.588 34.0272C501.482 29.5052 504.679 25.6492 508.772 22.9499C512.864 20.2507 517.668 18.8304 522.57 18.8699V18.8699ZM522.36 61.7499C532.2 61.7499 539.71 53.9899 539.77 43.6999C539.83 33.4099 532.15 25.2399 522.42 25.1199C512.69 24.9999 505.13 32.8399 505.11 43.2099C505.09 53.5799 512.59 61.7199 522.36 61.7499Z" fill="black"/>
<path d="M487.7 46.15H450.01C450.81 52.62 453.57 57.47 459.3 60.31C466.16 63.71 474 61.94 481.45 55.31L485.71 59.05C478.07 70.41 458.71 71.34 449.12 60.89C440.12 51.19 440.55 34.14 450.12 25.02C456.53 18.88 464.23 17.34 472.59 19.96C481.14 22.64 485.27 29.25 486.93 37.61C487.338 40.441 487.595 43.2917 487.7 46.15ZM479.89 40.61C480.32 31.97 473.23 24.61 464.89 24.84C457.04 25.07 449.61 33.13 450.41 40.61H479.89Z" fill="black"/>
<path d="M428.15 66.95H421.39V0.540039H428.15V66.95Z" fill="black"/>
<path d="M382.75 19.9199H389.75V30.2599C392.37 27.5699 394.84 24.5799 397.75 22.1699C400.66 19.7599 404.57 18.8699 408.75 18.9799V26.5399C407.17 26.7699 405.49 26.8999 403.87 27.2799C395.32 29.2799 389.94 36.8499 389.75 47.1599C389.65 52.8399 389.75 58.5299 389.75 64.2199V66.9499H382.75V19.9199Z" fill="black"/>
<path d="M344.74 18.8701C347.972 18.8241 351.18 19.428 354.173 20.6459C357.167 21.8639 359.885 23.6711 362.167 25.9601C364.449 28.2492 366.247 30.9735 367.455 33.9711C368.663 36.9688 369.257 40.1787 369.2 43.4101C369.097 49.8783 366.462 56.0482 361.86 60.5948C357.258 65.1415 351.057 67.7022 344.588 67.727C338.119 67.7519 331.898 65.239 327.262 60.7279C322.625 56.2168 319.943 50.0673 319.79 43.6001C319.84 29.5901 330.63 18.8501 344.74 18.8701ZM344.57 61.7601C354.39 61.7601 361.88 53.9101 361.89 43.6201C361.9 33.3301 354.17 25.1601 344.47 25.1201C334.77 25.0801 327.24 32.8901 327.24 43.2901C327.24 53.6901 334.84 61.7701 344.57 61.7601V61.7601Z" fill="black"/>
<path d="M298.54 66.97H291.3V26.33L285 26.05V19.96H291C291.14 17.5 291.21 15.31 291.4 13.13C292.12 4.73999 296.85 0.269998 305.25 0.00999776C306.051 -0.00661146 306.853 0.0267852 307.65 0.109996C313.8 0.639996 313.8 0.639999 313.18 7.23C308.91 6.62 304.34 4.68 300.68 8.47C297.68 11.6 298.34 15.73 298.38 19.94H313.11V26.04H298.54V66.97Z" fill="black"/>
<path d="M247.32 46.07H209.93C209.915 49.1023 210.784 52.0733 212.43 54.6199C214.077 57.1665 216.429 59.1784 219.2 60.41C227.47 63.8 234.65 61.57 241.06 55.29L245.35 59.07C237.13 70.98 216.93 71.26 207.69 59.67C200.29 50.37 200.5 35.53 208.28 26.57C214.43 19.49 222.33 17.32 231.2 19.64C240.29 22.01 244.79 28.81 246.54 37.64C246.946 40.4346 247.206 43.2484 247.32 46.07V46.07ZM239.57 40.63C239.64 31.79 233.06 24.84 224.93 24.84C216.98 24.84 209.76 32.36 209.93 40.63H239.57Z" fill="black"/>
<path d="M181.02 19.8701H187.74V66.8701H181.02V19.8701Z" fill="black"/>
<path d="M180.51 1.91992H188.32V9.45992H180.51V1.91992Z" fill="black"/>
<path d="M149.39 66.9H142.31V19.98H149.31V30.54C153.87 23.54 159.56 18.83 168.46 18.95V26.3C168.26 26.4 168.04 26.6 167.81 26.6C157.23 26.78 149.72 34.48 149.4 47.26C149.25 52.85 149.4 58.46 149.4 64.05L149.39 66.9Z" fill="black"/>
<path d="M126.02 66.95H119.52V60.29C115.52 64.58 111.31 67.13 106.12 67.85C100.76 68.59 95.63 67.93 91.01 64.93C88.9761 63.5979 87.3209 61.7627 86.2049 59.6026C85.0889 57.4424 84.5501 55.0306 84.6406 52.6009C84.7312 50.1712 85.448 47.8061 86.7217 45.735C87.9953 43.6639 89.7826 41.9571 91.91 40.78C97.2 37.84 102.91 37.62 108.76 38.04C112.28 38.3 115.76 39.04 119.27 39.48C120.27 31.22 115.13 25.4 105.97 25.6C101.02 25.7 96.1 27.21 90.75 28.15L88.91 23.24C93.5509 20.736 98.7182 19.3653 103.99 19.24C106.828 19.1071 109.673 19.2916 112.47 19.79C120.47 21.39 125.41 26.14 125.87 34.21C126.48 45.04 126.02 55.89 126.02 66.95ZM119.25 45.08C117.1 44.62 114.95 43.99 112.76 43.73C107.76 43.15 102.64 42.59 97.76 44.64C94.28 46.11 92.16 48.69 92 52.57C91.8546 54.2778 92.2506 55.9881 93.132 57.4582C94.0133 58.9283 95.3352 60.0835 96.91 60.76C102.86 63.56 108.72 62.84 114.14 59.32C119.3 55.97 120.11 50.87 119.25 45.08V45.08Z" fill="black"/>
<path d="M72 76V81H0V76H72Z" fill="black"/>
<path d="M0.780029 19.8901H7.78003V27.4101C12 21.6201 16.86 18.6301 23.48 18.8301C30.1 19.0301 34.84 21.9801 38.42 28.2601C38.6814 27.677 38.9821 27.1124 39.32 26.5701C44.03 20.1901 50.5 18.0601 58.12 19.0401C66.12 20.0401 71.77 25.9601 72.22 35.0401C72.74 45.5901 72.34 56.1801 72.34 66.9101H65.26V63.9101C65.26 55.0101 65.42 46.1001 65.02 37.2201C64.68 29.8701 60.22 25.5601 53.78 25.4201C46.62 25.2601 41.23 29.6901 40.42 36.8601C40.1332 40.7464 40.0497 44.645 40.17 48.5401C40.17 54.5401 40.17 60.6201 40.17 66.8501H33.03V64.0601C33.03 55.7001 33.13 47.3301 32.95 38.9701C32.76 30.2001 28.33 25.3501 20.95 25.3701C13.57 25.3901 8.03003 31.3701 7.95003 39.3701C7.82003 47.9201 7.95003 56.4601 7.95003 65.0101V66.7901H0.780029V19.8901Z" fill="black"/>
</svg>
